<?xml version="1.0" encoding="UTF-8" standalone="no"?>
<!DOCTYPE svg PUBLIC "-//W3C//DTD SVG 1.1//EN" "http://www.w3.org/Graphics/SVG/1.1/DTD/svg11.dtd">
<svg width="100%" height="100%" viewBox="0 0 256 256" version="1.1" xmlns="http://www.w3.org/2000/svg" xmlns:xlink="http://www.w3.org/1999/xlink" xml:space="preserve" xmlns:serif="http://www.serif.com/" style="fill-rule:evenodd;clip-rule:evenodd;stroke-linejoin:round;stroke-miterlimit:2;">
    <g transform="matrix(1,0,0,1,-591.754,-354.447)">
        <g id="X" transform="matrix(1,0,0,1,591.754,354.447)">
            <rect x="0" y="0" width="256" height="256" style="fill:none;"/>
            <g transform="matrix(1,0,0,1,0,-354.447)">
                <circle cx="128" cy="482.447" r="128"/>
            </g>
            <g transform="matrix(1,0,0,1,524.806,128.13)">
                <path d="M-336.65,69.89L-364.482,69.89L-393.193,18.522C-394.039,16.96 -394.983,14.746 -396.025,11.882L-396.416,11.882C-397.002,13.314 -397.978,15.528 -399.345,18.522L-428.935,69.89L-456.963,69.89L-411.064,-0.521L-453.252,-70.15L-424.834,-70.15L-399.541,-22.884C-397.913,-19.759 -396.448,-16.634 -395.146,-13.509L-394.853,-13.509C-392.965,-17.61 -391.338,-20.866 -389.97,-23.275L-363.701,-70.15L-337.529,-70.15L-380.693,-0.716L-336.65,69.89Z" style="fill:rgb(35,60,215);fill-rule:nonzero;"/>
            </g>
        </g>
    </g>
</svg>
